#N canvas 0 23 738 755 10;
#X obj 384 341 sendOSC;
#X msg 384 281 connect localhost 12001;
#X floatatom 47 28 5 0 0 0 - - -;
#X floatatom 47 98 5 0 0 0 - - -;
#X obj 47 66 expr (60/$f1)*1000;
#X text 83 29 bpm;
#X text 165 68 convert to ms;
#X text 90 99 ms;
#X obj 20 143 metro;
#X obj 21 107 tgl 15 0 empty empty empty 17 7 0 10 -262144 -1 -1 0
1;
#X text -24 106 on/off;
#X text 58 143 outputs bang every 'x' ms;
#X obj 35 256 osc~ 800;
#X obj 20 300 *~;
#X obj 20 225 vline~;
#X obj -13 340 output~;
#X msg 20 176 1 20 \, 0 20 20;
#X text 114 173 got to 1 (full volume) in 20 \, then go to zero (no
volume) in 20 ms after waiting 20 ms;
#X text 68 224 translate to audio rate signal;
#X text 98 257 generate 800 hz sine tone;
#X text 50 299 multiply sine tone by amplitude envelope;
#X obj 530 384 adc~;
#X obj 533 431 bonk~;
#X obj 530 476 mtof;
#X floatatom 532 530 5 0 0 0 - - -;
#X obj -11 404 hsl 128 15 0 127 0 0 empty empty empty -2 -8 0 10 -262144
-1 -1 0 1;
#X obj -3 440 mtof;
#X obj -20 477 phasor~;
#X floatatom 270 481 5 0 0 0 - - -;
#X obj 175 400 hsl 128 15 0 127 0 0 empty empty empty -2 -8 0 10 -262144
-1 -1 0 1;
#X obj 166 441 mtof;
#X obj 149 478 phasor~;
#X obj -26 518 expr~ $v1 > 0.5;
#X obj 142 508 expr~ $v1 > 0.5;
#X obj -14 557 expr~ $v1 && $v2;
#X obj 270 508 phasor~;
#X obj 267 547 expr~ $v1 > 0.5;
#X obj -4 597 expr~ $v1 || $v2;
#X obj 259 609 bonk~;
#X obj 256 654 mtof;
#X floatatom 255 689 5 0 0 0 - - -;
#X msg 493 326 send /metro \$1;
#X msg 252 720 send /pulses \$1;
#X msg 533 568 send /input \$1;
#X obj -32 638 output~;
#X msg 482 662 send /green \$1;
#X msg 387 661 send /blue \$1;
#X obj 331 10 dumpOSC 12000;
#X obj 330 56 routeOSC /clic /oscON;
#X connect 1 0 0 0;
#X connect 2 0 4 0;
#X connect 3 0 8 1;
#X connect 4 0 3 0;
#X connect 8 0 16 0;
#X connect 8 0 41 0;
#X connect 9 0 8 0;
#X connect 12 0 13 1;
#X connect 13 0 15 0;
#X connect 13 0 15 1;
#X connect 14 0 13 0;
#X connect 16 0 14 0;
#X connect 21 0 22 0;
#X connect 22 0 23 0;
#X connect 23 0 24 0;
#X connect 24 0 43 0;
#X connect 25 0 26 0;
#X connect 25 0 46 0;
#X connect 26 0 27 0;
#X connect 27 0 32 0;
#X connect 28 0 35 0;
#X connect 29 0 30 0;
#X connect 29 0 45 0;
#X connect 30 0 31 0;
#X connect 31 0 33 0;
#X connect 32 0 34 0;
#X connect 33 0 34 1;
#X connect 34 0 37 0;
#X connect 35 0 36 0;
#X connect 36 0 37 1;
#X connect 37 0 38 0;
#X connect 37 0 44 0;
#X connect 37 0 44 1;
#X connect 38 0 39 0;
#X connect 39 0 40 0;
#X connect 40 0 42 0;
#X connect 41 0 0 0;
#X connect 42 0 0 0;
#X connect 43 0 0 0;
#X connect 45 0 0 0;
#X connect 46 0 0 0;
#X connect 47 0 48 0;
#X connect 48 0 9 0;
#X connect 48 1 28 0;
