#N canvas 0 22 678 509 10;
#X obj 54 50 inlet;
#X msg 58 185 \; pd dsp \$1;
#X obj 177 38 inlet;
#X obj 178 88 pack s f;
#X obj 184 175 soundfiler;
#X msg 204 132 read -resize \$1 \$2_ChL \$2_ChR;
#X obj 186 233 expr 44100 / $f1;
#X obj 184 280 *~;
#X obj 181 329 phasor~;
#X obj 188 370 *~;
#X obj 116 418 tabread4~ \$0_ChL;
#X obj 230 429 tabread4~ \$0_ChR;
#X obj 95 462 outlet~;
#X obj 228 461 outlet~;
#X obj 39 331 r \$0sampleSize;
#X obj 257 29 loadbang;
#X obj 239 62 f \$0;
#X obj 230 29 bng 15 250 50 0 empty empty empty 17 7 0 10 -262144 -1
-1;
#X obj 264 169 print;
#X obj 299 233 s \$0sampleSize;
#X msg 252 306 0;
#X obj 305 293 inlet;
#X obj 420 77 table \$0_ChL;
#X obj 425 104 table \$0_ChR;
#X obj 444 156 inlet;
#X floatatom 300 202 5 0 0 0 - - -;
#X floatatom 402 252 5 0 0 0 - - -;
#X floatatom 81 267 5 0 0 0 - - -;
#X obj 396 317 ==~ 0;
#X obj 397 348 tgl 15 0 empty empty empty 17 7 0 10 -262144 -1 -1 0
1;
#X obj 396 370 metro 50;
#X obj 395 404 snapshot~;
#X floatatom 391 431 5 0 0 0 - - -;
#X obj 399 456 /;
#X obj 467 384 r \$0sampleSize;
#X floatatom 453 457 5 0 0 0 - - -;
#X obj 540 452 outlet;
#X connect 0 0 1 0;
#X connect 2 0 3 0;
#X connect 3 0 5 0;
#X connect 4 0 6 0;
#X connect 4 0 25 0;
#X connect 5 0 4 0;
#X connect 5 0 18 0;
#X connect 6 0 7 0;
#X connect 6 0 27 0;
#X connect 7 0 8 0;
#X connect 8 0 9 0;
#X connect 8 0 28 0;
#X connect 9 0 10 0;
#X connect 9 0 11 0;
#X connect 10 0 12 0;
#X connect 11 0 13 0;
#X connect 14 0 9 0;
#X connect 15 0 16 0;
#X connect 16 0 3 1;
#X connect 17 0 16 0;
#X connect 20 0 8 1;
#X connect 21 0 20 0;
#X connect 24 0 26 0;
#X connect 25 0 19 0;
#X connect 26 0 7 1;
#X connect 29 0 30 0;
#X connect 30 0 31 0;
#X connect 31 0 32 0;
#X connect 32 0 33 0;
#X connect 33 0 35 0;
#X connect 34 0 33 1;
#X connect 35 0 36 0;
